<svg viewBox="0 0 24 24" fill="#1cb0f6" xmlns="http://www.w3.org/2000/svg">
    <rect fill="#ddf4ff" height="20" rx="3" width="22" x="1" y="3"/>
    <path d="M23,6V8H1V6A3,3,0,0,1,4,3H20A3,3,0,0,1,23,6Z"/>
    <path d="M7,14H5a1,1,0,0,1,0-2H7a1,1,0,0,1,0,2Z"/>
    <path d="M7,19H5a1,1,0,0,1,0-2H7a1,1,0,0,1,0,2Z"/>
    <path d="M13,14H11a1,1,0,0,1,0-2h2a1,1,0,0,1,0,2Z"/>
    <path d="M13,19H11a1,1,0,0,1,0-2h2a1,1,0,0,1,0,2Z"/>
    <path d="M19,14H17a1,1,0,0,1,0-2h2a1,1,0,0,1,0,2Z"/>
    <path d="M19,19H17a1,1,0,0,1,0-2h2a1,1,0,0,1,0,2Z"/>
    <path fill="#1899d6" d="M6,6A1,1,0,0,1,5,5V1A1,1,0,0,1,7,1V5A1,1,0,0,1,6,6Z"/>
    <path fill="#1899d6" d="M18,6a1,1,0,0,1-1-1V1a1,1,0,0,1,2,0V5A1,1,0,0,1,18,6Z"/>
</svg>
