<svg viewBox="0 0 120 120" width="120" height="120" xmlns="http://www.w3.org/2000/svg">
  <path d="M20,10 V35" stroke="#2b70c9" stroke-width="3" />
  <path d="M100,10 V35" stroke="#2b70c9" stroke-width="3" />
  <circle cy="10" cx="20" r="5" fill="#84d8ff" stroke="#2b70c9" />
  <circle cy="10" cx="100" r="5" fill="#84d8ff" stroke="#2b70c9" />
  <circle id="head" cy="60" cx="60" r="50" fill="#84d8ff" stroke="#2b70c9"/>
  <path id="forehead" fill="#1899d6" stroke="#2b70c9"  d="
    M 45,40
    H 75
    C 80,40 85,25 95,25
    C 80,5 40,5 25,25
    C 35,25 40,40 45,40
  " />
  <circle cy="30" cx="60" r="5" fill="#2b70c9" />
  <path id="face" stroke="#2b70c9" fill="#1899d6" d="
    M 40,45
    L 60, 50
    L 80, 45
    C 110,45 110,95 70,95
    C 70,90 50,90 50,95
    C 10,95 10,45 40,45
  " />
  <ellipse id="left-eye" cy="60" cx="40" rx="5" ry="8" fill="#84d8ff" />
  <ellipse id="right-eye" cy="60" cx="80" rx="5" ry="8" fill="#84d8ff" />
  <path id="mouth" d="M40,75 C 40,90 80,90 80,75 Z" fill="#2b70c9" />

</svg>
