<svg viewBox="0 0 24 24" fill="#ffffff" xmlns="http://www.w3.org/2000/svg">
    <g stroke="#afafaf" stroke-width="1" stroke-linecap="round">
        <path d="M22.2,9.839,20.648,9.53a8.9,8.9,0,0,0-.784-1.9l.874-1.31a1,1,0,0,0-.125-1.262L18.944,3.387a1,1,0,0,0-1.262-.125l-1.31.874a8.9,8.9,0,0,0-1.9-.784L14.161,1.8A1,1,0,0,0,13.18,1H10.82a1,1,0,0,0-.981.8L9.53,3.352a8.9,8.9,0,0,0-1.9.784l-1.31-.874a1,1,0,0,0-1.262.125L3.387,5.056a1,1,0,0,0-.125,1.262l.874,1.31a8.9,8.9,0,0,0-.784,1.9L1.8,9.839a1,1,0,0,0-.8.981v2.36a1,1,0,0,0,.8.981l1.548.309a8.9,8.9,0,0,0,.784,1.9l-.874,1.31a1,1,0,0,0,.125,1.262l1.669,1.669a1,1,0,0,0,1.262.125l1.31-.874a8.9,8.9,0,0,0,1.9.784L9.839,22.2a1,1,0,0,0,.981.8h2.36a1,1,0,0,0,.981-.8l.309-1.548a8.9,8.9,0,0,0,1.9-.784l1.31.874a1,1,0,0,0,1.262-.125l1.669-1.669a1,1,0,0,0,.125-1.262l-.874-1.31a8.9,8.9,0,0,0,.784-1.9l1.548-.309a1,1,0,0,0,.8-.981V10.82A1,1,0,0,0,22.2,9.839Z"/>
        <path d="M7,12 C 6,10 10,6 12,7" />
        <path d="M17,12 C 18,14 14,18 12,17" />
    </g>
</svg>
